<?xml version="1.0" encoding="UTF-8" standalone="no"?>
<!-- Created with Inkscape (http://www.inkscape.org/) -->

<svg
   xmlns:dc="http://purl.org/dc/elements/1.1/"
   xmlns:cc="http://creativecommons.org/ns#"
   xmlns:rdf="http://www.w3.org/1999/02/22-rdf-syntax-ns#"
   xmlns:svg="http://www.w3.org/2000/svg"
   xmlns="http://www.w3.org/2000/svg"
   xmlns:sodipodi="http://sodipodi.sourceforge.net/DTD/sodipodi-0.dtd"
   xmlns:inkscape="http://www.inkscape.org/namespaces/inkscape"
   width="46.926857mm"
   height="6.4780588mm"
   viewBox="0 0 46.926857 6.4780588"
   version="1.1"
   id="svg7086"
   inkscape:version="0.92.3 (2405546, 2018-03-11)"
   sodipodi:docname="ornament.svg">
  <defs
     id="defs7080" />
  <sodipodi:namedview
     id="base"
     pagecolor="#ffffff"
     bordercolor="#666666"
     borderopacity="1.0"
     inkscape:pageopacity="0.0"
     inkscape:pageshadow="2"
     inkscape:zoom="0.35"
     inkscape:cx="653.48508"
     inkscape:cy="-42.902666"
     inkscape:document-units="mm"
     inkscape:current-layer="layer1"
     showgrid="false"
     inkscape:window-width="1920"
     inkscape:window-height="992"
     inkscape:window-x="0"
     inkscape:window-y="25"
     inkscape:window-maximized="1" />
  <metadata
     id="metadata7083">
    <rdf:RDF>
      <cc:Work
         rdf:about="">
        <dc:format>image/svg+xml</dc:format>
        <dc:type
           rdf:resource="http://purl.org/dc/dcmitype/StillImage" />
        <dc:title></dc:title>
      </cc:Work>
    </rdf:RDF>
  </metadata>
  <g
     inkscape:label="Layer 1"
     inkscape:groupmode="layer"
     id="layer1"
     transform="translate(67.067927,-131.00394)">
    <g
       transform="matrix(0.03527778,0,0,-0.03527778,-286.66858,211.20833)"
       id="g7144">
      <path
         inkscape:connector-curvature="0"
         id="path2626"
         style="fill:#352018;fill-opacity:1;fill-rule:nonzero;stroke:none"
         d="m 6841.79,2184.03 c 5.18,4.51 9.41,9.62 12.87,14.82 6.75,10.54 9.87,21.51 10.76,31.02 0.97,9.54 0.16,17.7 -1.07,24.15 -0.49,3.25 -1.28,6.06 -1.92,8.49 -0.56,2.45 -1.25,4.46 -1.81,6.06 -1.12,3.25 -1.69,4.94 -1.69,4.94 0,0 0.28,-1.77 0.83,-5.13 0.29,-1.68 0.63,-3.74 0.81,-6.21 0.25,-2.46 0.58,-5.29 0.58,-8.48 0.27,-6.36 -0.11,-14.17 -2.14,-22.74 -1.94,-8.57 -5.97,-17.81 -12.67,-26.09 -3.44,-4.07 -7.41,-7.97 -12.12,-11.29 -4.74,-3.27 -10.05,-6.07 -15.84,-8.25 -11.61,-4.38 -25.17,-5.88 -39.11,-4.61 -13.96,1.48 -28.39,5.7 -41.92,12.97 -1.73,0.83 -3.34,1.85 -4.99,2.81 -1.63,0.95 -3.29,1.92 -5.14,3.13 -3.6,2.27 -7.24,4.57 -10.9,6.87 -3.6,2.35 -7.49,4.54 -11.38,6.74 -3.94,2.16 -7.7,4.57 -11.88,6.54 -16.2,8.57 -34,14.37 -51.42,17.3 -8.79,0.92 -17.41,2.17 -25.78,1.68 -4.19,-0.06 -8.33,-0.04 -12.4,-0.21 -4.02,-0.44 -8.01,-0.87 -11.95,-1.3 -3.92,-0.48 -7.78,-0.8 -11.61,-1.4 -3.86,-0.72 -7.64,-1.44 -11.28,-2.34 -7.31,-1.68 -14.24,-3.83 -20.89,-6.04 -13.24,-4.53 -25.13,-9.97 -35.43,-15.96 -10.31,-5.96 -18.96,-12.55 -25.84,-19.05 -3.28,-3.47 -6.41,-6.54 -8.74,-9.91 -1.19,-1.64 -2.48,-3.08 -3.4,-4.69 -0.93,-1.6 -1.81,-3.11 -2.64,-4.56 -1.82,-2.77 -2.6,-5.69 -3.61,-7.99 -1.06,-2.3 -1.45,-4.42 -1.82,-6.1 -0.72,-3.34 -1.1,-5.1 -1.1,-5.1 0,0 0.66,1.67 1.94,4.83 0.62,1.58 1.32,3.52 2.7,5.59 1.35,2.06 2.46,4.67 4.59,7.04 0.98,1.24 2.01,2.54 3.1,3.91 1.06,1.38 2.51,2.56 3.83,3.93 2.57,2.82 5.95,5.31 9.37,8.1 7.22,5.22 16.01,10.33 26.27,14.85 10.27,4.53 21.97,8.51 34.77,11.65 6.42,1.51 13.07,2.98 19.96,4.03 3.46,0.58 6.91,0.97 10.41,1.38 3.54,0.3 7.23,0.36 10.9,0.56 3.67,0.19 7.39,0.38 11.16,0.56 3.74,-0.05 7.5,-0.29 11.31,-0.41 7.67,0.09 15.18,-1.4 22.89,-2.42 15.19,-3.16 30.36,-8.3 45.35,-16.22 3.8,-1.75 7.46,-4.09 11.16,-6.07 3.69,-2.05 7.37,-4.04 11.01,-6.32 3.64,-2.19 7.26,-4.36 10.85,-6.52 1.72,-1.06 3.71,-2.17 5.73,-3.27 2,-1.09 3.98,-2.23 6.01,-3.15 16.04,-7.92 33.23,-12.06 49.7,-12.72 16.49,-0.46 32.38,2.54 45.72,8.98 6.68,3.2 12.69,7.16 17.91,11.62" />
      <path
         inkscape:connector-curvature="0"
         id="path2628"
         style="fill:#352018;fill-opacity:1;fill-rule:nonzero;stroke:none"
         d="m 6679.33,2169.14 c -5.18,4.14 -11.83,8.34 -20.2,12.34 -8.39,3.94 -18.51,7.72 -30.84,9.95 -12.25,2.35 -27.05,2.87 -43.24,-0.81 -8.04,-2.01 -16.3,-5.05 -24.38,-9.22 -8.03,-4.19 -15.83,-9.4 -23.53,-14.98 -7.72,-5.6 -15.22,-11.44 -22.9,-16.86 -7.54,-5.45 -15.9,-10.23 -24.35,-15.17 -16.76,-9.66 -35.03,-16.69 -54.36,-20.45 -19.24,-3.78 -39.43,-4.55 -58.67,-3.43 -19.22,1.19 -37.6,5.07 -53.64,12.07 -16.01,7.06 -29.63,16.83 -41.25,26.46 -11.62,9.67 -21.47,19.01 -29.84,26.58 -8.36,7.6 -15.14,13.58 -19.89,17.55 -4.76,3.99 -7.34,6.15 -7.34,6.15 0,0 2.38,-2.4 6.74,-6.79 4.36,-4.39 10.57,-10.93 18.22,-19.19 7.7,-8.25 16.74,-18.35 27.78,-29.13 11.03,-10.71 24.45,-22.07 41.15,-30.89 16.69,-8.75 36.35,-14.28 56.73,-16.79 20.37,-2.41 41.58,-2.8 62.94,0.34 21.28,3.06 42.36,10.28 60.78,20.23 9.11,4.98 18.15,9.91 26.55,15.77 8.37,5.7 16.03,11.58 23.39,16.92 7.35,5.33 14.27,10 21.02,13.68 6.74,3.63 13.34,6.24 19.75,8.11 12.9,3.42 25.08,3.87 35.87,2.7 10.83,-1.04 20.21,-3.38 28.14,-5.84 7.92,-2.54 14.51,-5.23 19.83,-7.94 10.72,-5.36 16.77,-10.17 20.54,-13.04 3.58,-3.03 5.06,-4.03 5.06,-4.03 0,0 -0.37,1.65 -2.6,6.09 -2.41,4.25 -7.06,11.4 -17.46,19.62" />
      <path
         inkscape:connector-curvature="0"
         id="path2630"
         style="fill:#352018;fill-opacity:1;fill-rule:nonzero;stroke:none"
         d="m 7096.3,2201.48 c 14.98,7.92 30.16,13.06 45.35,16.22 7.72,1.02 15.23,2.51 22.89,2.42 3.81,0.12 7.57,0.36 11.31,0.41 3.77,-0.18 7.49,-0.37 11.16,-0.56 3.67,-0.2 7.36,-0.26 10.9,-0.56 3.5,-0.41 6.95,-0.8 10.41,-1.38 6.89,-1.05 13.54,-2.52 19.96,-4.03 12.81,-3.14 24.51,-7.12 34.77,-11.65 10.26,-4.52 19.05,-9.63 26.27,-14.85 3.43,-2.79 6.81,-5.28 9.38,-8.1 1.31,-1.37 2.76,-2.55 3.82,-3.93 1.08,-1.37 2.12,-2.67 3.11,-3.91 2.12,-2.37 3.24,-4.98 4.58,-7.04 1.38,-2.07 2.08,-4.01 2.7,-5.59 1.28,-3.16 1.95,-4.83 1.95,-4.83 0,0 -0.39,1.76 -1.11,5.1 -0.36,1.68 -0.76,3.8 -1.82,6.1 -1.01,2.3 -1.79,5.22 -3.61,7.99 -0.83,1.45 -1.71,2.96 -2.64,4.56 -0.91,1.61 -2.21,3.05 -3.4,4.69 -2.34,3.37 -5.46,6.44 -8.74,9.91 -6.88,6.5 -15.53,13.09 -25.84,19.05 -10.3,5.99 -22.19,11.43 -35.43,15.96 -6.64,2.21 -13.57,4.36 -20.89,6.04 -3.64,0.9 -7.42,1.62 -11.28,2.34 -3.83,0.6 -7.69,0.92 -11.62,1.4 -3.93,0.43 -7.91,0.86 -11.94,1.3 -4.07,0.17 -8.21,0.15 -12.4,0.21 -8.37,0.49 -16.99,-0.76 -25.77,-1.68 -17.43,-2.93 -35.23,-8.73 -51.43,-17.3 -4.18,-1.97 -7.94,-4.38 -11.88,-6.54 -3.89,-2.2 -7.78,-4.39 -11.39,-6.74 -3.65,-2.3 -7.29,-4.6 -10.89,-6.87 -1.85,-1.21 -3.51,-2.18 -5.14,-3.13 -1.65,-0.96 -3.26,-1.98 -4.99,-2.81 -13.53,-7.27 -27.96,-11.49 -41.91,-12.97 -13.95,-1.27 -27.51,0.23 -39.12,4.61 -5.79,2.18 -11.1,4.98 -15.84,8.25 -4.71,3.32 -8.68,7.22 -12.12,11.29 -6.7,8.28 -10.73,17.52 -12.67,26.09 -2.03,8.57 -2.41,16.38 -2.14,22.74 0,3.19 0.33,6.02 0.58,8.48 0.18,2.47 0.52,4.53 0.82,6.21 0.53,3.36 0.83,5.13 0.83,5.13 0,0 -0.58,-1.69 -1.7,-4.94 -0.56,-1.6 -1.25,-3.61 -1.81,-6.06 -0.64,-2.43 -1.43,-5.24 -1.92,-8.49 -1.23,-6.45 -2.04,-14.61 -1.07,-24.15 0.88,-9.51 4.02,-20.48 10.76,-31.02 3.46,-5.2 7.69,-10.31 12.87,-14.82 5.22,-4.46 11.23,-8.42 17.91,-11.62 13.34,-6.44 29.23,-9.44 45.73,-8.98 16.46,0.66 33.65,4.8 49.69,12.72 2.03,0.92 4.01,2.06 6.01,3.15 2.02,1.1 4.02,2.21 5.73,3.27 3.6,2.16 7.21,4.33 10.85,6.52 3.64,2.28 7.32,4.27 11.01,6.32 3.7,1.98 7.36,4.32 11.16,6.07" />
      <path
         inkscape:connector-curvature="0"
         id="path2632"
         style="fill:#352018;fill-opacity:1;fill-rule:nonzero;stroke:none"
         d="m 7547.76,2193.17 c -4.75,-3.97 -11.53,-9.95 -19.89,-17.55 -8.37,-7.57 -18.23,-16.91 -29.84,-26.58 -11.61,-9.63 -25.24,-19.4 -41.25,-26.46 -16.04,-7 -34.42,-10.88 -53.64,-12.07 -19.25,-1.12 -39.43,-0.35 -58.67,3.43 -19.33,3.76 -37.59,10.79 -54.36,20.45 -8.45,4.94 -16.81,9.72 -24.36,15.17 -7.67,5.42 -15.17,11.26 -22.89,16.86 -7.7,5.58 -15.49,10.79 -23.53,14.98 -8.07,4.17 -16.34,7.21 -24.37,9.22 -16.2,3.68 -31.01,3.16 -43.25,0.81 -12.33,-2.23 -22.45,-6.01 -30.84,-9.95 -8.38,-4 -15.02,-8.2 -20.19,-12.34 -10.41,-8.22 -15.05,-15.37 -17.47,-19.62 -2.23,-4.44 -2.59,-6.09 -2.59,-6.09 0,0 1.48,1 5.06,4.03 3.75,2.87 9.81,7.68 20.53,13.04 5.32,2.71 11.91,5.4 19.83,7.94 7.93,2.46 17.31,4.8 28.14,5.84 10.79,1.17 22.96,0.72 35.88,-2.7 6.4,-1.87 12.99,-4.48 19.74,-8.11 6.75,-3.68 13.67,-8.35 21.02,-13.68 7.36,-5.34 15.02,-11.22 23.39,-16.92 8.4,-5.86 17.44,-10.79 26.55,-15.77 18.41,-9.95 39.49,-17.17 60.78,-20.23 21.36,-3.14 42.58,-2.75 62.94,-0.34 20.38,2.51 40.04,8.04 56.74,16.79 16.69,8.82 30.11,20.18 41.14,30.89 11.04,10.78 20.08,20.88 27.78,29.13 7.66,8.26 13.85,14.8 18.22,19.19 4.35,4.39 6.75,6.79 6.75,6.79 0,0 -2.6,-2.16 -7.35,-6.15" />
      <path
         inkscape:connector-curvature="0"
         id="path2634"
         style="fill:#352018;fill-opacity:1;fill-rule:nonzero;stroke:none"
         d="m 6891.21,2089.88 c -0.5,26.62 36.67,63.78 63.27,63.28 -26.6,0.5 -65.19,39.09 -65.7,65.71 0.51,-26.62 -36.66,-63.78 -63.26,-63.27 26.6,-0.51 65.19,-39.1 65.69,-65.72" />
    </g>
  </g>
</svg>
